<svg xmlns="http://www.w3.org/2000/svg" viewBox="0 0 640 640">
	<title>WT64</title>
	<path fill="#025" d="M310.88 8.99C139.21 8.99 -0.02 148.25 -0.02 319.96C-0.02 491.6 139.21 630.75 310.88 630.75C343.84 630.75 375.68 625.43 405.58 615.98L405.58 460.76C379.76 475.71 349.63 484.39 317.32 484.39C222.8 484.39 146.36 410.71 146.36 319.9C146.36 229.02 222.86 155.34 317.32 155.34C349.63 155.34 379.76 164.03 405.58 178.98L405.58 23.76C375.68 14.3 343.78 8.99 310.88 8.99Z" />
	<path fill="#025" d="M408.29 201.61L639.86 201.61L536.19 309.62L408.29 309.62L408.29 201.61Z" />
	<path fill="#f00" d="M408.29 439.25L639.86 439.25L536.19 331.42L408.29 331.42L408.29 439.25Z" />
</svg>